<svg xmlns="http://www.w3.org/2000/svg" viewBox="0 0 32 32"><title>guitar</title><g class="nc-icon-wrapper" fill="#4a4a4a"><path fill="none" stroke="#4a4a4a" stroke-width="2" stroke-linecap="square" stroke-miterlimit="10" d="M16.2,23.5 c1.1-1.1,2.8-1.1,3.8,0l1-1c3.2-3.2,3.2-8.3,0-11.5s-8.3-3.2-11.5,0l-1,1c1.1,1.1,1.1,2.8,0,3.8c-1.1,1.1-2.8,1.1-3.8,0l-1,1 c-3.2,3.2-3.2,8.3,0,11.5s8.3,3.2,11.5,0l1-1C15.1,26.3,15.1,24.5,16.2,23.5z" stroke-linejoin="miter"/> <line data-color="color-2" fill="none" stroke="#4a4a4a" stroke-width="2" stroke-linecap="square" stroke-miterlimit="10" x1="7" y1="22" x2="10" y2="25" stroke-linejoin="miter"/> <line data-cap="butt" data-color="color-2" fill="none" stroke="#4a4a4a" stroke-width="2" stroke-miterlimit="10" x1="24.8" y1="7.2" x2="17.4" y2="14.6" stroke-linejoin="miter" stroke-linecap="butt"/> <rect data-color="color-2" x="24" y="2.6" transform="matrix(0.7071 0.7071 -0.7071 0.7071 11.568 -17.3272)" fill="none" stroke="#4a4a4a" stroke-width="2" stroke-linecap="square" stroke-miterlimit="10" width="5.4" height="5.4" stroke-linejoin="miter"/> <circle data-color="color-2" fill="none" stroke="#4a4a4a" stroke-width="2" stroke-linecap="square" stroke-miterlimit="10" cx="16" cy="16" r="2" stroke-linejoin="miter"/></g></svg>