<svg xmlns="http://www.w3.org/2000/svg" viewBox="0 0 32 32"><title>play movie</title><g class="nc-icon-wrapper" fill="#4a4a4a"><rect x="1" y="3" width="30" height="26" fill="none" stroke="#4a4a4a" stroke-linecap="square" stroke-miterlimit="10" stroke-width="2" stroke-linejoin="miter"/><polygon data-color="color-2" points="13 12 20 16 13 20 13 12" fill="none" stroke="#4a4a4a" stroke-linecap="square" stroke-miterlimit="10" stroke-width="2" stroke-linejoin="miter"/><line data-cap="butt" x1="1" y1="8" x2="31" y2="8" fill="none" stroke="#4a4a4a" stroke-miterlimit="10" stroke-width="2" stroke-linecap="butt"/><line data-cap="butt" x1="6" y1="3" x2="6" y2="8" fill="none" stroke="#4a4a4a" stroke-miterlimit="10" stroke-width="2" stroke-linecap="butt"/><line data-cap="butt" x1="11" y1="3" x2="11" y2="8" fill="none" stroke="#4a4a4a" stroke-miterlimit="10" stroke-width="2" stroke-linecap="butt"/><line data-cap="butt" x1="16" y1="3" x2="16" y2="8" fill="none" stroke="#4a4a4a" stroke-miterlimit="10" stroke-width="2" stroke-linecap="butt"/><line data-cap="butt" x1="21" y1="3" x2="21" y2="8" fill="none" stroke="#4a4a4a" stroke-miterlimit="10" stroke-width="2" stroke-linecap="butt"/><line data-cap="butt" x1="26" y1="3" x2="26" y2="8" fill="none" stroke="#4a4a4a" stroke-miterlimit="10" stroke-width="2" stroke-linecap="butt"/><line data-cap="butt" x1="31" y1="24" x2="1" y2="24" fill="none" stroke="#4a4a4a" stroke-miterlimit="10" stroke-width="2" stroke-linecap="butt"/><line data-cap="butt" x1="6" y1="24" x2="6" y2="29" fill="none" stroke="#4a4a4a" stroke-miterlimit="10" stroke-width="2" stroke-linecap="butt"/><line data-cap="butt" x1="11" y1="24" x2="11" y2="29" fill="none" stroke="#4a4a4a" stroke-miterlimit="10" stroke-width="2" stroke-linecap="butt"/><line data-cap="butt" x1="16" y1="24" x2="16" y2="29" fill="none" stroke="#4a4a4a" stroke-miterlimit="10" stroke-width="2" stroke-linecap="butt"/><line data-cap="butt" x1="21" y1="24" x2="21" y2="29" fill="none" stroke="#4a4a4a" stroke-miterlimit="10" stroke-width="2" stroke-linecap="butt"/><line data-cap="butt" x1="26" y1="24" x2="26" y2="29" fill="none" stroke="#4a4a4a" stroke-miterlimit="10" stroke-width="2" stroke-linecap="butt"/></g></svg>