<svg xmlns="http://www.w3.org/2000/svg" viewBox="0 0 32 32"><title>rice</title><g class="nc-icon-wrapper" fill="#4a4a4a"><path d="M10.65,30h10.7A14.991,14.991,0,0,0,31,16H1A14.991,14.991,0,0,0,10.65,30Z" fill="none" stroke="#4a4a4a" stroke-linecap="square" stroke-miterlimit="10" stroke-width="2" stroke-linejoin="miter"/> <path d="M29,12a3.993,3.993,0,0,0-7.243-2.326A3.943,3.943,0,0,0,16.1,7.5,3.967,3.967,0,0,0,9.239,8.685,4,4,0,0,0,3,12" fill="none" stroke="#4a4a4a" stroke-linecap="square" stroke-miterlimit="10" stroke-width="2" data-color="color-2" stroke-linejoin="miter"/> <line x1="26.764" y1="8.413" x2="31" y2="1" fill="none" stroke="#4a4a4a" stroke-miterlimit="10" stroke-width="2" data-cap="butt" data-color="color-2" stroke-linecap="butt"/> <line x1="23.517" y1="8.289" x2="25" y2="2" fill="none" stroke="#4a4a4a" stroke-miterlimit="10" stroke-width="2" data-cap="butt" data-color="color-2" stroke-linecap="butt"/> <circle cx="6" cy="4" r="1" fill="#4a4a4a" data-cap="butt" data-stroke="none" stroke-linecap="butt"/> <circle cx="17" cy="2" r="1" fill="#4a4a4a" data-cap="butt" data-stroke="none" stroke-linecap="butt"/></g></svg>